<?xml version="1.0" encoding="UTF-8" standalone="no"?>
<!-- Created with Inkscape (http://www.inkscape.org/) -->

<svg
   xmlns:dc="http://purl.org/dc/elements/1.1/"
   xmlns:cc="http://creativecommons.org/ns#"
   xmlns:rdf="http://www.w3.org/1999/02/22-rdf-syntax-ns#"
   xmlns:svg="http://www.w3.org/2000/svg"
   xmlns="http://www.w3.org/2000/svg"
   xmlns:sodipodi="http://sodipodi.sourceforge.net/DTD/sodipodi-0.dtd"
   xmlns:inkscape="http://www.inkscape.org/namespaces/inkscape"
   width="751mm"
   height="132mm"
   viewBox="0 0 751 132"
   version="1.1"
   id="svg874"
   inkscape:version="0.92.5 (2060ec1f9f, 2020-04-08)"
   sodipodi:docname="fanduel logo.svg">
  <defs
     id="defs868" />
  <sodipodi:namedview
     id="base"
     pagecolor="#ffffff"
     bordercolor="#666666"
     borderopacity="1.0"
     inkscape:pageopacity="0.0"
     inkscape:pageshadow="2"
     inkscape:zoom="0.42053519"
     inkscape:cx="1412.3003"
     inkscape:cy="412.03518"
     inkscape:document-units="mm"
     inkscape:current-layer="layer1"
     showgrid="false"
     fit-margin-top="0"
     fit-margin-left="0"
     fit-margin-right="0"
     fit-margin-bottom="0"
     inkscape:window-width="1920"
     inkscape:window-height="1017"
     inkscape:window-x="1912"
     inkscape:window-y="70"
     inkscape:window-maximized="1" />
  <metadata
     id="metadata871">
    <rdf:RDF>
      <cc:Work
         rdf:about="">
        <dc:format>image/svg+xml</dc:format>
        <dc:type
           rdf:resource="http://purl.org/dc/dcmitype/StillImage" />
        <dc:title></dc:title>
      </cc:Work>
    </rdf:RDF>
  </metadata>
  <g
     inkscape:label="Layer 1"
     inkscape:groupmode="layer"
     id="layer1"
     transform="translate(47.927804,-44.806208)">
    <g
       id="g1443"
       transform="matrix(0.76158217,0,0,0.75008308,-47.923982,44.806208)">
	<g
   id="g1435">
		<path
   id="path1421"
   d="m 234.2,144.9 h 19.2 c 0.8,0 1.5,-0.7 1.5,-1.5 V 98.7 h 34.4 c 0.6,0 1.2,-0.4 1.4,-1 l 6.1,-16.8 c 0.3,-0.8 -0.1,-1.6 -0.9,-1.9 -0.2,-0.1 -0.3,-0.1 -0.5,-0.1 h -40.5 v -28 h 51.7 c 0.6,0 1.2,-0.4 1.4,-1 l 6.2,-16.8 c 0.3,-0.8 -0.1,-1.6 -0.9,-1.9 -0.2,-0.1 -0.3,-0.1 -0.5,-0.1 h -78.6 c -0.8,0 -1.5,0.7 -1.5,1.5 v 110.8 c 0,0.9 0.7,1.5 1.5,1.5 z"
   class="st0"
   inkscape:connector-curvature="0"
   style="fill:#1f375b" />

		<path
   id="path1423"
   d="m 357.2,32.1 -40.3,110.8 c -0.3,0.8 0.1,1.6 0.9,1.9 0.2,0.1 0.3,0.1 0.5,0.1 h 20 c 0.6,0 1.2,-0.4 1.4,-1 l 6.5,-19.1 h 40.5 l 6.4,19.1 c 0.2,0.6 0.8,1 1.4,1 h 19.9 c 0.8,0 1.5,-0.7 1.5,-1.5 0,-0.2 0,-0.3 -0.1,-0.5 L 375.4,32.1 c -0.2,-0.6 -0.8,-1 -1.4,-1 h -15.3 c -0.7,0 -1.2,0.4 -1.5,1 z m -4.7,74 14.4,-41.4 13.9,41.4 z"
   class="st0"
   inkscape:connector-curvature="0"
   style="fill:#1f375b" />

		<path
   id="path1425"
   d="m 506.8,100.8 -44.7,-69 c -0.3,-0.4 -0.8,-0.7 -1.3,-0.7 h -17.5 c -0.8,0 -1.5,0.7 -1.5,1.5 v 0 110.8 c 0,0.8 0.7,1.5 1.5,1.5 v 0 h 19.2 c 0.8,0 1.5,-0.7 1.5,-1.5 v 0 V 75 l 44.7,69.2 c 0.3,0.4 0.8,0.7 1.3,0.7 h 17.5 c 0.8,0 1.5,-0.7 1.5,-1.5 v 0 -110.8 c 0,-0.8 -0.7,-1.5 -1.5,-1.5 v 0 h -19.2 c -0.8,0 -1.5,0.7 -1.5,1.5 v 0 z"
   class="st0"
   inkscape:connector-curvature="0"
   style="fill:#1f375b" />

		<path
   id="path1427"
   d="m 743.3,105.1 c 0,13.1 -7.8,21 -19.8,21 -12,0 -19.7,-7.8 -19.7,-21 V 32.6 c 0,-0.8 -0.7,-1.5 -1.5,-1.5 v 0 h -19.2 c -0.8,0 -1.5,0.7 -1.5,1.5 v 0 73.3 c 0,24.2 18.6,40 41.9,40 23.3,0 41.9,-15.8 41.9,-40 V 32.6 c 0,-0.8 -0.7,-1.5 -1.5,-1.5 v 0 h -19 c -0.8,0 -1.5,0.7 -1.5,1.5 v 0 z"
   class="st0"
   inkscape:connector-curvature="0"
   style="fill:#1f375b" />

		<path
   id="path1429"
   d="m 876.7,49.9 6.1,-16.8 c 0.3,-0.8 -0.1,-1.6 -0.9,-1.9 -0.2,-0.1 -0.3,-0.1 -0.5,-0.1 h -78.5 c -0.8,0 -1.5,0.7 -1.5,1.5 v 0 110.8 c 0,0.8 0.7,1.5 1.5,1.5 v 0 h 78.5 c 0.8,0 1.5,-0.7 1.5,-1.5 0,-0.2 0,-0.3 -0.1,-0.5 l -6.1,-16.8 c -0.2,-0.6 -0.8,-1 -1.4,-1 H 823.6 V 97.4 h 41.6 c 0.8,0 1.5,-0.7 1.5,-1.5 v 0 -16.8 c 0,-0.8 -0.7,-1.5 -1.5,-1.5 v 0 H 823.6 V 50.9 h 51.7 c 0.6,0 1.2,-0.4 1.4,-1 z"
   class="st0"
   inkscape:connector-curvature="0"
   style="fill:#1f375b" />

		<path
   id="path1431"
   d="m 978.6,125.1 h -47 V 32.6 c 0,-0.8 -0.7,-1.5 -1.5,-1.5 0,0 0,0 -0.1,0 h -19.2 c -0.8,0 -1.5,0.7 -1.5,1.5 v 0 110.8 c 0,0.8 0.7,1.5 1.5,1.5 v 0 h 73.8 c 0.8,0 1.5,-0.7 1.5,-1.5 0,-0.2 0,-0.3 -0.1,-0.5 l -6.1,-16.8 c -0.1,-0.6 -0.7,-1 -1.3,-1 z"
   class="st0"
   inkscape:connector-curvature="0"
   style="fill:#1f375b" />

		<path
   id="path1433"
   d="M 637.9,42 C 630.4,34.5 619.7,31.1 607.8,31.1 h -45.2 c -0.8,0 -1.5,0.7 -1.5,1.5 0,0.1 0,0.2 0,0.3 l 3.3,16.8 c 0.2,0.7 0.7,1.2 1.4,1.2 h 39.7 c 7.7,0 12.8,2.4 16.6,7 4.2,5.1 4.8,12.3 4.8,29.6 0,17.3 -0.6,25.4 -4.8,30.5 -3.8,4.6 -9,7 -16.6,7 H 589 V 65.9 c 0,-0.8 -0.7,-1.5 -1.5,-1.5 v 0 h -19.2 c -0.8,0 -1.5,0.7 -1.5,1.5 v 0 77.6 c 0,0.8 0.7,1.5 1.5,1.5 v 0 h 39.6 c 11.8,0 22.6,-3.4 30.1,-10.9 12.8,-12.8 11.5,-29.4 11.5,-46.5 -0.1,-17.2 1.2,-32.9 -11.6,-45.6 z"
   class="st0"
   inkscape:connector-curvature="0"
   style="fill:#1f375b" />

	</g>

	<g
   id="g1441">
		<path
   id="path1437"
   d="M 72.8,29.1 C 76.2,21.8 80.1,14.9 84.6,8.5 86.4,5.9 88.3,3.5 90.2,1.2 90.5,0.7 90.2,0 89.6,0 89.1,0 88.6,0 88.1,0 68,0 48.6,3.4 30.6,9.6 21.3,12.8 12.3,16.8 3.7,21.5 1.3,22.8 -0.1,25.3 0,28 c 0.2,10 1.3,19.7 3.2,29.2 1.7,8.9 4.1,17.6 7.1,26 3.6,10.1 8.1,19.8 13.5,28.9 9.8,16.9 22.3,32 37,44.7 2.5,2.2 5.1,4.3 7.7,6.3 0.6,0.4 1.4,-0.2 1.1,-0.8 -1.1,-2.7 -2.1,-5.5 -3,-8.3 -4.5,-13.5 -7.3,-28 -8.2,-43 0,-0.7 -0.3,-1.3 -0.6,-1.8 -3.7,-5.1 -7,-10.3 -10,-15.9 2.7,-1.5 5.6,-2.8 8.5,-3.9 1.3,-0.5 2.1,-1.7 2.2,-3.1 0.7,-10 2.2,-19.9 4.6,-29.3 0.1,-0.5 -0.3,-1 -0.8,-0.9 -9.1,2.1 -17.9,5.2 -26,9.3 -2.3,-7.8 -4,-15.8 -5,-24 12.2,-5.2 25.3,-8.7 38.9,-10.4 1,0 2,-0.8 2.6,-1.9 z"
   class="st1"
   inkscape:connector-curvature="0"
   style="fill:#1493ff" />

		<path
   id="path1439"
   d="M 172.5,21.5 C 163.9,16.8 155,12.9 145.6,9.6 133.1,5.3 120.1,2.4 106.5,1 c -1.1,-0.1 -2.1,0.3 -2.9,1 -7.3,7.5 -13.8,16.6 -19.1,27 -0.2,0.5 0.1,1 0.6,1 1,0 1.9,0 2.9,0 20.2,0 39.5,4.1 57.1,11.5 -1,8.2 -2.7,16.3 -5,24 -2.9,9.7 -6.8,19 -11.6,27.8 -10,18.4 -23.9,34.5 -40.5,47 -5.8,-4.4 -11.2,-9.1 -16.2,-14.3 -0.5,-0.5 -1.3,-0.1 -1.2,0.6 1.3,7.6 3,15 5.2,22 3.1,9.8 7.1,18.8 11.9,27 0.2,0.3 0.6,0.5 1,0.3 9.5,-5.6 18.5,-12 26.8,-19.2 14.6,-12.7 27.2,-27.8 37,-44.7 5.3,-9.2 9.8,-18.8 13.5,-28.9 3,-8.4 5.4,-17.1 7.1,-26 1.8,-9.5 2.9,-19.3 3.2,-29.2 0,-2.7 -1.4,-5.2 -3.8,-6.4 z"
   class="st1"
   inkscape:connector-curvature="0"
   style="fill:#1493ff" />

	</g>

</g>
  </g>
  <style
     id="style1419"
     type="text/css">
	.st0{fill:#1F375B;}
	.st1{fill:#1493FF;}
</style>
</svg>
